<?xml version="1.0" standalone="no"?>
<!DOCTYPE svg PUBLIC "-//W3C//DTD SVG 20010904//EN"
 "http://www.w3.org/TR/2001/REC-SVG-20010904/DTD/svg10.dtd">
<svg version="1.0" xmlns="http://www.w3.org/2000/svg"
 width="700.000000pt" height="700.000000pt" viewBox="0 0 700.000000 700.000000"
 preserveAspectRatio="xMidYMid meet">
<metadata>
Created by potrace 1.14, written by Peter Selinger 2001-2017
</metadata>
<g transform="translate(0.000000,700.000000) scale(0.100000,-0.100000)"
fill="#000000" stroke="none">
<path d="M3163 6344 c-788 -95 -1483 -496 -1958 -1129 -302 -402 -491 -877
-549 -1385 -33 -278 -16 -643 40 -915 180 -865 753 -1603 1539 -1985 411 -199
806 -290 1265 -290 634 0 1213 190 1713 563 635 474 1040 1179 1132 1972 19
167 19 483 0 650 -92 794 -496 1498 -1132 1972 -407 303 -876 489 -1383 547
-165 20 -509 19 -667 0z m-435 -2316 c183 -662 238 -856 242 -851 3 2 69 219
146 481 l142 477 191 3 c191 2 191 2 201 -20 5 -13 68 -223 140 -468 72 -245
133 -453 136 -463 3 -10 8 -16 11 -14 2 3 64 221 137 484 l132 478 217 3 c119
1 217 0 217 -3 0 -5 -133 -425 -491 -1552 l-11 -33 -197 0 -197 0 -144 475
c-80 260 -146 472 -149 469 -3 -2 -69 -215 -147 -472 l-142 -467 -198 0 -199
0 -247 775 c-136 426 -247 783 -247 793 -1 16 16 17 213 17 l213 0 31 -112z"/>
</g>
</svg>
