<svg xmlns="http://www.w3.org/2000/svg" aria-hidden="true" style="position:absolute;width:0;height:0;overflow:hidden"><defs>
<symbol id="icon-facebook" viewBox="0 0 32 32"><path d="M9.081 0.865h13.838c4.538 0 8.216 3.679 8.216 8.216v13.838c0 4.538-3.679 8.216-8.216 8.216h-13.838c-4.538 0-8.216-3.679-8.216-8.216v-13.838c0-4.538 3.679-8.216 8.216-8.216z"></path>
<path d="M17.903 9.86c0.13 0 0.259 0 0.519 0v1.946c-0.13 0-0.389 0-0.649 0s-0.519 0-0.649 0.13c-0.13 0.13-0.13 0.259-0.13 0.562 0 0.259 0 0.432 0 0.692h1.427v1.643h-1.427v7.135h-2.205v-7.178h-1.168v-1.643h1.168v-0.562c0-0.951 0.13-1.643 0.389-1.946 0.389-0.562 1.168-0.822 2.335-0.822 0.13 0.043 0.259 0.043 0.389 0.043z"></path>
</symbol>
<symbol id="icon-instagram" viewBox="0 0 32 32">
<path d="M9.081 0.865h13.838c4.538 0 8.216 3.679 8.216 8.216v13.838c0 4.538-3.679 8.216-8.216 8.216h-13.838c-4.538 0-8.216-3.679-8.216-8.216v-13.838c0-4.538 3.679-8.216 8.216-8.216z"></path>
<path d="M22.874 13.165c-0.008-0.581-0.116-1.157-0.322-1.7-0.36-0.927-1.094-1.661-2.023-2.020-0.537-0.202-1.105-0.31-1.68-0.322-0.739-0.033-0.974-0.042-2.85-0.042s-2.117 0-2.851 0.042c-0.574 0.012-1.142 0.12-1.679 0.322-0.929 0.359-1.664 1.092-2.023 2.020-0.202 0.536-0.311 1.103-0.322 1.676-0.033 0.739-0.043 0.973-0.043 2.846s0 2.113 0.043 2.846c0.011 0.574 0.12 1.14 0.322 1.678 0.36 0.927 1.094 1.66 2.024 2.019 0.535 0.209 1.103 0.327 1.679 0.345 0.74 0.033 0.974 0.043 2.851 0.043s2.117 0 2.851-0.043c0.574-0.012 1.142-0.12 1.68-0.321 0.929-0.36 1.663-1.093 2.023-2.020 0.202-0.537 0.31-1.103 0.322-1.678 0.033-0.738 0.043-0.972 0.043-2.846-0.002-1.873-0.002-2.111-0.045-2.845zM15.995 19.53c-1.963 0-3.552-1.587-3.552-3.547s1.59-3.547 3.552-3.547c1.961 0 3.552 1.587 3.552 3.547s-1.591 3.547-3.552 3.547zM19.688 13.133c-0.459 0-0.828-0.37-0.828-0.827s0.37-0.827 0.828-0.827c0.457 0 0.828 0.37 0.828 0.827s-0.37 0.827-0.828 0.827z"></path>
<path d="M15.996 18.149c1.195 0 2.164-0.969 2.164-2.164s-0.969-2.164-2.164-2.164c-1.195 0-2.164 0.969-2.164 2.164s0.969 2.164 2.164 2.164z"></path>
</symbol>
<symbol id="icon-youtube" viewBox="0 0 32 32">
<path d="M9.081 0.865h13.838c4.538 0 8.216 3.679 8.216 8.216v13.838c0 4.538-3.679 8.216-8.216 8.216h-13.838c-4.538 0-8.216-3.679-8.216-8.216v-13.838c0-4.538 3.679-8.216 8.216-8.216z"></path>
<path d="M20.454 10.595c-0.735-0.043-2.249-0.086-4.541-0.086h-0.303c-2.205 0-3.676 0.043-4.411 0.13-0.995 0.086-1.687 0.346-2.076 0.692-0.346 0.303-0.605 0.865-0.692 1.6-0.043 0.476-0.086 1.47-0.086 2.984v0.216c0 1.427 0.043 2.422 0.13 2.897 0.13 0.692 0.346 1.211 0.778 1.514 0.432 0.346 1.168 0.562 2.205 0.649 0.735 0.043 2.249 0.087 4.541 0.087h0.303c2.205 0 3.676-0.043 4.411-0.13 0.995-0.087 1.686-0.346 2.076-0.692 0.346-0.303 0.605-0.865 0.692-1.6 0.043-0.476 0.087-1.47 0.087-2.984v-0.216c0-1.427-0.043-2.422-0.13-2.897-0.13-0.692-0.346-1.211-0.778-1.514-0.432-0.346-1.168-0.562-2.205-0.649zM18.767 15.913l-4.757 2.854v-5.708l4.757 2.854z"></path>
</symbol>
<symbol id="icon-burger" viewBox="0 0 32 32">
<path stroke-linejoin="round" stroke-linecap="round" stroke-miterlimit="4" stroke-width="2.8235" d="M1.882 10.51h28.235M1.882 21.49h28.235"></path>
</symbol>
<symbol id="icon-close" viewBox="0 0 32 32">
<path d="M32 3.223l-3.223-3.223-12.777 12.777-12.777-12.777-3.223 3.223 12.777 12.777-12.777 12.777 3.223 3.223 12.777-12.777 12.777 12.777 3.223-3.223-12.777-12.777 12.777-12.777z"></path>
</symbol>


</defs>
</svg>