<svg xmlns="http://www.w3.org/2000/svg" aria-hidden="true" style="position:absolute;width:0;height:0;overflow:hidden"><defs>
<symbol id="icon-facebook" viewBox="0 0 32 32"><path d="M9.081 0.865h13.838c4.538 0 8.216 3.679 8.216 8.216v13.838c0 4.538-3.679 8.216-8.216 8.216h-13.838c-4.538 0-8.216-3.679-8.216-8.216v-13.838c0-4.538 3.679-8.216 8.216-8.216z"></path>
<path d="M17.903 9.86c0.13 0 0.259 0 0.519 0v1.946c-0.13 0-0.389 0-0.649 0s-0.519 0-0.649 0.13c-0.13 0.13-0.13 0.259-0.13 0.562 0 0.259 0 0.432 0 0.692h1.427v1.643h-1.427v7.135h-2.205v-7.178h-1.168v-1.643h1.168v-0.562c0-0.951 0.13-1.643 0.389-1.946 0.389-0.562 1.168-0.822 2.335-0.822 0.13 0.043 0.259 0.043 0.389 0.043z"></path>
</symbol>
<symbol id="icon-instagram" viewBox="0 0 32 32">
<path d="M9.081 0.865h13.838c4.538 0 8.216 3.679 8.216 8.216v13.838c0 4.538-3.679 8.216-8.216 8.216h-13.838c-4.538 0-8.216-3.679-8.216-8.216v-13.838c0-4.538 3.679-8.216 8.216-8.216z"></path>
<path d="M22.874 13.165c-0.008-0.581-0.116-1.157-0.322-1.7-0.36-0.927-1.094-1.661-2.023-2.020-0.537-0.202-1.105-0.31-1.68-0.322-0.739-0.033-0.974-0.042-2.85-0.042s-2.117 0-2.851 0.042c-0.574 0.012-1.142 0.12-1.679 0.322-0.929 0.359-1.664 1.092-2.023 2.020-0.202 0.536-0.311 1.103-0.322 1.676-0.033 0.739-0.043 0.973-0.043 2.846s0 2.113 0.043 2.846c0.011 0.574 0.12 1.14 0.322 1.678 0.36 0.927 1.094 1.66 2.024 2.019 0.535 0.209 1.103 0.327 1.679 0.345 0.74 0.033 0.974 0.043 2.851 0.043s2.117 0 2.851-0.043c0.574-0.012 1.142-0.12 1.68-0.321 0.929-0.36 1.663-1.093 2.023-2.020 0.202-0.537 0.31-1.103 0.322-1.678 0.033-0.738 0.043-0.972 0.043-2.846-0.002-1.873-0.002-2.111-0.045-2.845zM15.995 19.53c-1.963 0-3.552-1.587-3.552-3.547s1.59-3.547 3.552-3.547c1.961 0 3.552 1.587 3.552 3.547s-1.591 3.547-3.552 3.547zM19.688 13.133c-0.459 0-0.828-0.37-0.828-0.827s0.37-0.827 0.828-0.827c0.457 0 0.828 0.37 0.828 0.827s-0.37 0.827-0.828 0.827z"></path>
<path d="M15.996 18.149c1.195 0 2.164-0.969 2.164-2.164s-0.969-2.164-2.164-2.164c-1.195 0-2.164 0.969-2.164 2.164s0.969 2.164 2.164 2.164z"></path>
</symbol>
<symbol id="icon-youtube" viewBox="0 0 32 32">
<path d="M9.081 0.865h13.838c4.538 0 8.216 3.679 8.216 8.216v13.838c0 4.538-3.679 8.216-8.216 8.216h-13.838c-4.538 0-8.216-3.679-8.216-8.216v-13.838c0-4.538 3.679-8.216 8.216-8.216z"></path>
<path d="M20.454 10.595c-0.735-0.043-2.249-0.086-4.541-0.086h-0.303c-2.205 0-3.676 0.043-4.411 0.13-0.995 0.086-1.687 0.346-2.076 0.692-0.346 0.303-0.605 0.865-0.692 1.6-0.043 0.476-0.086 1.47-0.086 2.984v0.216c0 1.427 0.043 2.422 0.13 2.897 0.13 0.692 0.346 1.211 0.778 1.514 0.432 0.346 1.168 0.562 2.205 0.649 0.735 0.043 2.249 0.087 4.541 0.087h0.303c2.205 0 3.676-0.043 4.411-0.13 0.995-0.087 1.686-0.346 2.076-0.692 0.346-0.303 0.605-0.865 0.692-1.6 0.043-0.476 0.087-1.47 0.087-2.984v-0.216c0-1.427-0.043-2.422-0.13-2.897-0.13-0.692-0.346-1.211-0.778-1.514-0.432-0.346-1.168-0.562-2.205-0.649zM18.767 15.913l-4.757 2.854v-5.708l4.757 2.854z"></path>
</symbol>
<symbol id="icon-burger" viewBox="0 0 32 32">
<path stroke-linejoin="round" stroke-linecap="round" stroke-miterlimit="4" stroke-width="2.8235" d="M1.882 10.51h28.235M1.882 21.49h28.235"></path>
</symbol>
<symbol id="icon-close" viewBox="0 0 32 32">
<path d="M32 3.223l-3.223-3.223-12.777 12.777-12.777-12.777-3.223 3.223 12.777 12.777-12.777 12.777 3.223 3.223 12.777-12.777 12.777 12.777 3.223-3.223-12.777-12.777 12.777-12.777z"></path>
</symbol>
<symbol id="icon-icon-instagram1" viewBox="0 0 32 32">
<path fill="none" stroke="#0c0c0c" style="stroke: var(--color1, #0c0c0c)" stroke-linejoin="miter" stroke-linecap="butt" stroke-miterlimit="4" stroke-width="0.8889" d="M8.889 0.444h14.222c4.664 0 8.444 3.781 8.444 8.444v14.222c0 4.664-3.781 8.444-8.444 8.444h-14.222c-4.664 0-8.444-3.781-8.444-8.444v-14.222c0-4.664 3.781-8.444 8.444-8.444z"></path>
<path d="M23.065 13.087c-0.009-0.597-0.119-1.189-0.331-1.747-0.37-0.953-1.125-1.707-2.079-2.076-0.552-0.207-1.136-0.319-1.727-0.331-0.76-0.034-1.001-0.043-2.929-0.043s-2.176 0-2.93 0.043c-0.59 0.013-1.174 0.124-1.726 0.331-0.955 0.369-1.71 1.123-2.079 2.076-0.208 0.551-0.32 1.134-0.331 1.723-0.034 0.759-0.044 1-0.044 2.925s0 2.171 0.044 2.925c0.012 0.59 0.123 1.172 0.331 1.724 0.37 0.953 1.125 1.706 2.080 2.075 0.55 0.214 1.133 0.336 1.726 0.355 0.761 0.034 1.001 0.044 2.93 0.044s2.176 0 2.93-0.044c0.59-0.012 1.174-0.123 1.727-0.33 0.955-0.37 1.709-1.124 2.079-2.076 0.208-0.552 0.319-1.134 0.331-1.724 0.034-0.759 0.044-0.999 0.044-2.925-0.002-1.925-0.002-2.17-0.046-2.924zM15.995 19.629c-2.017 0-3.651-1.631-3.651-3.645s1.634-3.645 3.651-3.645c2.015 0 3.651 1.631 3.651 3.645s-1.636 3.645-3.651 3.645zM19.791 13.053c-0.472 0-0.851-0.38-0.851-0.85s0.38-0.85 0.851-0.85c0.47 0 0.851 0.38 0.851 0.85s-0.381 0.85-0.851 0.85z"></path>
<path d="M15.996 18.209c1.229 0 2.224-0.996 2.224-2.224s-0.996-2.224-2.224-2.224c-1.229 0-2.224 0.996-2.224 2.224s0.996 2.224 2.224 2.224z"></path>
</symbol>
<symbol id="icon-youtube1" viewBox="0 0 32 32">
<path fill="none" stroke="#0c0c0c" style="stroke: var(--color1, #0c0c0c)" stroke-linejoin="miter" stroke-linecap="butt" stroke-miterlimit="4" stroke-width="0.8889" d="M8.889 0.444h14.222c4.664 0 8.444 3.781 8.444 8.444v14.222c0 4.664-3.781 8.444-8.444 8.444h-14.222c-4.664 0-8.444-3.781-8.444-8.444v-14.222c0-4.664 3.781-8.444 8.444-8.444z"></path>
<path d="M20.578 10.444c-0.756-0.044-2.311-0.089-4.667-0.089h-0.311c-2.267 0-3.778 0.044-4.533 0.133-1.022 0.089-1.733 0.356-2.133 0.711-0.356 0.311-0.622 0.889-0.711 1.644-0.044 0.489-0.089 1.511-0.089 3.067v0.222c0 1.467 0.044 2.489 0.133 2.978 0.133 0.711 0.356 1.244 0.8 1.556 0.444 0.356 1.2 0.578 2.267 0.667 0.756 0.044 2.311 0.089 4.667 0.089h0.311c2.267 0 3.778-0.044 4.533-0.133 1.022-0.089 1.733-0.356 2.133-0.711 0.356-0.311 0.622-0.889 0.711-1.644 0.044-0.489 0.089-1.511 0.089-3.067v-0.222c0-1.467-0.044-2.489-0.133-2.978-0.133-0.711-0.356-1.244-0.8-1.556-0.444-0.356-1.2-0.578-2.267-0.667zM18.844 15.911l-4.889 2.933v-5.867l4.889 2.933z"></path>
</symbol>
<symbol id="icon-facebook1" viewBox="0 0 32 32">
<path style="stroke: var(--color1, #0c0c0c)" stroke-linejoin="miter" stroke-linecap="butt" stroke-miterlimit="4" stroke-width="0.8889" d="M8.889 0.444h14.222c4.664 0 8.444 3.781 8.444 8.444v14.222c0 4.664-3.781 8.444-8.444 8.444h-14.222c-4.664 0-8.444-3.781-8.444-8.444v-14.222c0-4.664 3.781-8.444 8.444-8.444z"></path>
<path d="M17.956 9.689c0.133 0 0.267 0 0.533 0v2c-0.133 0-0.4 0-0.667 0s-0.533 0-0.667 0.133c-0.133 0.133-0.133 0.267-0.133 0.578 0 0.267 0 0.444 0 0.711h1.467v1.689h-1.467v7.333h-2.267v-7.378h-1.2v-1.689h1.2v-0.578c0-0.978 0.133-1.689 0.4-2 0.4-0.578 1.2-0.844 2.4-0.844 0.133 0.044 0.267 0.044 0.4 0.044z"></path>
</symbol>
<symbol id="icon-instagram1" viewBox="0 0 32 32">
<path fill="none" stroke="#0c0c0c" style="stroke: var(--color1, #0c0c0c)" stroke-linejoin="miter" stroke-linecap="butt" stroke-miterlimit="4" stroke-width="0.8889" d="M8.889 0.444h14.222c4.664 0 8.444 3.781 8.444 8.444v14.222c0 4.664-3.781 8.444-8.444 8.444h-14.222c-4.664 0-8.444-3.781-8.444-8.444v-14.222c0-4.664 3.781-8.444 8.444-8.444z"></path>
<path d="M23.065 13.087c-0.009-0.597-0.119-1.189-0.331-1.747-0.37-0.953-1.125-1.707-2.079-2.076-0.552-0.207-1.136-0.319-1.727-0.331-0.76-0.034-1.001-0.043-2.929-0.043s-2.176 0-2.93 0.043c-0.59 0.013-1.174 0.124-1.726 0.331-0.955 0.369-1.71 1.123-2.079 2.076-0.208 0.551-0.32 1.134-0.331 1.723-0.034 0.759-0.044 1-0.044 2.925s0 2.171 0.044 2.925c0.012 0.59 0.123 1.172 0.331 1.724 0.37 0.953 1.125 1.706 2.080 2.075 0.55 0.214 1.133 0.336 1.726 0.355 0.761 0.034 1.001 0.044 2.93 0.044s2.176 0 2.93-0.044c0.59-0.012 1.174-0.123 1.727-0.33 0.955-0.37 1.709-1.124 2.079-2.076 0.208-0.552 0.319-1.134 0.331-1.724 0.034-0.759 0.044-0.999 0.044-2.925-0.002-1.925-0.002-2.17-0.046-2.924zM15.995 19.629c-2.017 0-3.651-1.631-3.651-3.645s1.634-3.645 3.651-3.645c2.015 0 3.651 1.631 3.651 3.645s-1.636 3.645-3.651 3.645zM19.791 13.053c-0.472 0-0.851-0.38-0.851-0.85s0.38-0.85 0.851-0.85c0.47 0 0.851 0.38 0.851 0.85s-0.381 0.85-0.851 0.85z"></path>
<path d="M15.996 18.209c1.229 0 2.224-0.996 2.224-2.224s-0.996-2.224-2.224-2.224c-1.229 0-2.224 0.996-2.224 2.224s0.996 2.224 2.224 2.224z"></path>
</symbol>

</defs>
</svg>